<svg xmlns="http://www.w3.org/2000/svg" xmlns:xlink="http://www.w3.org/1999/xlink" width="500" zoomAndPan="magnify" viewBox="0 0 375 149.999998" height="200" preserveAspectRatio="xMidYMid meet" version="1.0"><defs><g/><clipPath id="fe05cd4931"><path d="M 23.835938 30 L 83 30 L 83 120.226562 L 23.835938 120.226562 Z M 23.835938 30 " clip-rule="nonzero"/></clipPath><clipPath id="422d022bbf"><path d="M 23.835938 30 L 83 30 L 83 98 L 23.835938 98 Z M 23.835938 30 " clip-rule="nonzero"/></clipPath><clipPath id="aa85dc508a"><path d="M 104 29.476562 L 122.085938 29.476562 L 122.085938 48 L 104 48 Z M 104 29.476562 " clip-rule="nonzero"/></clipPath><clipPath id="cd37d4355d"><path d="M 61 30 L 122.085938 30 L 122.085938 120 L 61 120 Z M 61 30 " clip-rule="nonzero"/></clipPath><clipPath id="a7787c9d4f"><path d="M 61 30 L 122.085938 30 L 122.085938 98 L 61 98 Z M 61 30 " clip-rule="nonzero"/></clipPath></defs><g clip-path="url(#fe05cd4931)"><path fill="#ffffff" d="M 47.207031 34.023438 L 78.785156 65.417969 C 79.421875 66.050781 79.988281 66.738281 80.488281 67.480469 C 80.988281 68.226562 81.410156 69.007812 81.753906 69.835938 C 82.097656 70.660156 82.359375 71.511719 82.535156 72.386719 C 82.707031 73.265625 82.796875 74.148438 82.796875 75.042969 C 82.796875 75.9375 82.707031 76.824219 82.535156 77.699219 C 82.359375 78.574219 82.097656 79.425781 81.753906 80.253906 C 81.410156 81.078125 80.988281 81.863281 80.488281 82.605469 C 79.988281 83.347656 79.421875 84.035156 78.785156 84.667969 L 47.207031 116.0625 C 38.582031 124.640625 23.828125 118.5625 23.835938 106.429688 L 23.835938 43.636719 C 23.828125 31.523438 38.582031 25.449219 47.207031 34.023438 Z M 47.207031 34.023438 " fill-opacity="1" fill-rule="nonzero"/></g><g clip-path="url(#422d022bbf)"><path fill="#ffffff" d="M 47.207031 34.023438 C 38.628906 25.496094 24.046875 31.457031 23.84375 43.433594 C 23.84375 43.433594 73.535156 90.179688 65.636719 97.796875 L 78.816406 84.695312 C 79.449219 84.0625 80.019531 83.375 80.515625 82.632812 C 81.015625 81.890625 81.4375 81.105469 81.78125 80.28125 C 82.125 79.453125 82.386719 78.601562 82.5625 77.726562 C 82.738281 76.851562 82.824219 75.964844 82.824219 75.070312 C 82.824219 74.175781 82.738281 73.292969 82.5625 72.414062 C 82.386719 71.539062 82.125 70.6875 81.78125 69.863281 C 81.4375 69.035156 81.015625 68.253906 80.515625 67.507812 C 80.019531 66.765625 79.449219 66.078125 78.816406 65.445312 Z M 47.207031 34.023438 " fill-opacity="1" fill-rule="nonzero"/></g><g clip-path="url(#aa85dc508a)"><path fill="#ffffff" d="M 122.085938 38.472656 C 122.085938 39.058594 122.03125 39.636719 121.914062 40.210938 C 121.800781 40.78125 121.628906 41.339844 121.40625 41.878906 C 121.179688 42.417969 120.90625 42.929688 120.578125 43.417969 C 120.253906 43.902344 119.882812 44.351562 119.464844 44.765625 C 119.050781 45.175781 118.597656 45.546875 118.109375 45.871094 C 117.621094 46.195312 117.105469 46.46875 116.5625 46.691406 C 116.019531 46.917969 115.460938 47.085938 114.882812 47.199219 C 114.308594 47.3125 113.726562 47.371094 113.140625 47.371094 C 112.550781 47.371094 111.96875 47.3125 111.394531 47.199219 C 110.816406 47.085938 110.257812 46.917969 109.714844 46.691406 C 109.171875 46.46875 108.65625 46.195312 108.167969 45.871094 C 107.679688 45.546875 107.226562 45.175781 106.8125 44.765625 C 106.394531 44.351562 106.027344 43.902344 105.699219 43.417969 C 105.371094 42.929688 105.097656 42.417969 104.871094 41.878906 C 104.648438 41.339844 104.476562 40.78125 104.363281 40.210938 C 104.25 39.636719 104.191406 39.058594 104.191406 38.472656 C 104.191406 37.890625 104.25 37.3125 104.363281 36.738281 C 104.476562 36.164062 104.648438 35.609375 104.871094 35.070312 C 105.097656 34.53125 105.371094 34.019531 105.699219 33.53125 C 106.027344 33.046875 106.394531 32.597656 106.8125 32.183594 C 107.226562 31.769531 107.679688 31.402344 108.167969 31.078125 C 108.65625 30.753906 109.171875 30.480469 109.714844 30.253906 C 110.257812 30.03125 110.816406 29.863281 111.394531 29.75 C 111.96875 29.636719 112.550781 29.578125 113.140625 29.578125 C 113.726562 29.578125 114.308594 29.636719 114.882812 29.75 C 115.460938 29.863281 116.019531 30.03125 116.5625 30.253906 C 117.105469 30.480469 117.621094 30.753906 118.109375 31.078125 C 118.597656 31.402344 119.050781 31.769531 119.464844 32.183594 C 119.882812 32.597656 120.253906 33.046875 120.578125 33.53125 C 120.90625 34.019531 121.179688 34.53125 121.40625 35.070312 C 121.628906 35.609375 121.800781 36.164062 121.914062 36.738281 C 122.03125 37.3125 122.085938 37.890625 122.085938 38.472656 Z M 122.085938 38.472656 " fill-opacity="1" fill-rule="nonzero"/><path fill="#ffffff" d="M 122.085938 38.472656 C 122.085938 39.058594 122.03125 39.636719 121.914062 40.210938 C 121.800781 40.78125 121.628906 41.339844 121.40625 41.878906 C 121.179688 42.417969 120.90625 42.929688 120.578125 43.417969 C 120.253906 43.902344 119.882812 44.351562 119.464844 44.765625 C 119.050781 45.175781 118.597656 45.546875 118.109375 45.871094 C 117.621094 46.195312 117.105469 46.46875 116.5625 46.691406 C 116.019531 46.917969 115.460938 47.085938 114.882812 47.199219 C 114.308594 47.3125 113.726562 47.371094 113.140625 47.371094 C 112.550781 47.371094 111.96875 47.3125 111.394531 47.199219 C 110.816406 47.085938 110.257812 46.917969 109.714844 46.691406 C 109.171875 46.46875 108.65625 46.195312 108.167969 45.871094 C 107.679688 45.546875 107.226562 45.175781 106.8125 44.765625 C 106.394531 44.351562 106.027344 43.902344 105.699219 43.417969 C 105.371094 42.929688 105.097656 42.417969 104.871094 41.878906 C 104.648438 41.339844 104.476562 40.78125 104.363281 40.210938 C 104.25 39.636719 104.191406 39.058594 104.191406 38.472656 C 104.191406 37.890625 104.25 37.3125 104.363281 36.738281 C 104.476562 36.164062 104.648438 35.609375 104.871094 35.070312 C 105.097656 34.53125 105.371094 34.019531 105.699219 33.53125 C 106.027344 33.046875 106.394531 32.597656 106.8125 32.183594 C 107.226562 31.769531 107.679688 31.402344 108.167969 31.078125 C 108.65625 30.753906 109.171875 30.480469 109.714844 30.253906 C 110.257812 30.03125 110.816406 29.863281 111.394531 29.75 C 111.96875 29.636719 112.550781 29.578125 113.140625 29.578125 C 113.726562 29.578125 114.308594 29.636719 114.882812 29.75 C 115.460938 29.863281 116.019531 30.03125 116.5625 30.253906 C 117.105469 30.480469 117.621094 30.753906 118.109375 31.078125 C 118.597656 31.402344 119.050781 31.769531 119.464844 32.183594 C 119.882812 32.597656 120.253906 33.046875 120.578125 33.53125 C 120.90625 34.019531 121.179688 34.53125 121.40625 35.070312 C 121.628906 35.609375 121.800781 36.164062 121.914062 36.738281 C 122.03125 37.3125 122.085938 37.890625 122.085938 38.472656 Z M 122.085938 38.472656 " fill-opacity="1" fill-rule="nonzero"/></g><g clip-path="url(#cd37d4355d)"><path fill="#ffffff" d="M 118.074219 65.496094 L 86.492188 34.097656 C 78.015625 25.664062 55.417969 35.445312 63.152344 43.132812 L 85.859375 65.71875 C 86.496094 66.351562 87.0625 67.039062 87.5625 67.78125 C 88.0625 68.523438 88.484375 69.308594 88.828125 70.132812 C 89.175781 70.957031 89.433594 71.808594 89.609375 72.683594 C 89.785156 73.5625 89.871094 74.445312 89.871094 75.339844 C 89.871094 76.234375 89.785156 77.117188 89.609375 77.996094 C 89.433594 78.871094 89.175781 79.722656 88.828125 80.546875 C 88.484375 81.375 88.0625 82.15625 87.5625 82.898438 C 87.0625 83.644531 86.496094 84.328125 85.859375 84.960938 L 63.164062 107.53125 C 56.246094 114.402344 78.097656 124.542969 86.492188 116.195312 L 118.074219 84.800781 C 118.710938 84.167969 119.285156 83.480469 119.785156 82.734375 C 120.289062 81.988281 120.714844 81.203125 121.0625 80.375 C 121.40625 79.546875 121.667969 78.691406 121.84375 77.8125 C 122.023438 76.933594 122.109375 76.046875 122.109375 75.148438 C 122.109375 74.25 122.023438 73.363281 121.84375 72.484375 C 121.667969 71.601562 121.40625 70.75 121.0625 69.921875 C 120.714844 69.09375 120.289062 68.304688 119.785156 67.5625 C 119.285156 66.816406 118.710938 66.128906 118.074219 65.496094 Z M 118.074219 65.496094 " fill-opacity="1" fill-rule="nonzero"/></g><g clip-path="url(#a7787c9d4f)"><path fill="#ffffff" d="M 118.074219 65.496094 L 86.492188 34.097656 C 78.015625 25.664062 55.417969 35.445312 63.152344 43.132812 L 85.859375 65.71875 C 86.957031 66.808594 87.839844 68.046875 88.511719 69.433594 C 89.183594 70.820312 89.605469 72.28125 89.777344 73.8125 C 97.601562 82.945312 104.105469 91.8125 105.460938 97.339844 L 118.09375 84.78125 C 118.730469 84.148438 119.300781 83.457031 119.800781 82.714844 C 120.300781 81.96875 120.722656 81.183594 121.070312 80.355469 C 121.414062 79.527344 121.671875 78.675781 121.847656 77.796875 C 122.023438 76.917969 122.109375 76.027344 122.109375 75.132812 C 122.109375 74.238281 122.019531 73.351562 121.84375 72.472656 C 121.664062 71.59375 121.402344 70.742188 121.058594 69.914062 C 120.710938 69.085938 120.285156 68.300781 119.785156 67.558594 C 119.28125 66.816406 118.710938 66.128906 118.074219 65.496094 Z M 118.074219 65.496094 " fill-opacity="1" fill-rule="nonzero"/></g><g fill="#ffffff" fill-opacity="1"><g transform="translate(140.739809, 97.040979)"><g><path d="M 25.460938 0 C 32.328125 0 39.097656 -3.949219 39.097656 -12.386719 C 39.097656 -17.183594 35.554688 -21.195312 31.261719 -22.574219 C 34.207031 -23.828125 36.652344 -27.339844 36.652344 -31.101562 C 36.652344 -38.222656 31.417969 -42.640625 23.671875 -42.640625 L 5.078125 -42.640625 L 5.078125 0 Z M 12.949219 -35.933594 L 23.328125 -35.933594 C 26.429688 -35.933594 28.78125 -33.550781 28.78125 -30.414062 C 28.78125 -27.246094 26.429688 -24.832031 23.296875 -24.832031 L 12.949219 -24.832031 Z M 12.949219 -18.96875 L 24.832031 -18.96875 C 28.40625 -18.96875 31.101562 -16.273438 31.101562 -12.980469 C 31.101562 -9.3125 28.40625 -6.742188 24.769531 -6.742188 L 12.949219 -6.742188 Z M 12.949219 -18.96875 "/></g></g></g><g fill="#ffffff" fill-opacity="1"><g transform="translate(181.837364, 97.040979)"><g><path d="M 17.339844 0.972656 C 22.574219 0.972656 26.839844 -1.410156 28.941406 -5.425781 L 28.941406 0 L 36.152344 0 L 36.152344 -32.230469 L 28.941406 -32.230469 L 28.941406 -26.777344 C 26.871094 -30.789062 22.574219 -33.203125 17.308594 -33.203125 C 8.683594 -33.203125 2.164062 -25.523438 2.164062 -16.117188 C 2.164062 -6.648438 8.621094 0.972656 17.339844 0.972656 Z M 19.15625 -6.050781 C 14.046875 -6.050781 9.6875 -9.84375 9.6875 -16.117188 C 9.6875 -22.167969 13.953125 -26.179688 19.15625 -26.179688 C 24.425781 -26.179688 28.625 -21.726562 28.625 -16.117188 C 28.625 -10.410156 24.457031 -6.050781 19.15625 -6.050781 Z M 19.15625 -6.050781 "/></g></g></g><g fill="#ffffff" fill-opacity="1"><g transform="translate(222.433348, 97.040979)"><g><path d="M 12.039062 0 L 12.039062 -16.460938 C 12.039062 -22.761719 16.117188 -26.210938 20.566406 -26.210938 C 25.144531 -26.210938 28.03125 -23.609375 28.03125 -17.214844 L 28.03125 0 L 35.617188 0 L 35.617188 -17.371094 C 35.617188 -27.496094 31.324219 -33.203125 22.667969 -33.203125 C 17.714844 -33.203125 13.511719 -30.726562 11.664062 -27.214844 L 11.664062 -32.230469 L 4.453125 -32.230469 L 4.453125 0 Z M 12.039062 0 "/></g></g></g><g fill="#ffffff" fill-opacity="1"><g transform="translate(262.245625, 97.040979)"><g><path d="M 34.019531 0 L 22.636719 -19.472656 L 32.640625 -32.230469 L 23.390625 -32.230469 L 12.039062 -17.121094 L 12.039062 -44.148438 L 4.453125 -44.148438 L 4.453125 0 L 12.039062 0 L 12.039062 -8.96875 L 17.121094 -14.515625 L 25.492188 0 Z M 34.019531 0 "/></g></g></g><g fill="#ffffff" fill-opacity="1"><g transform="translate(296.603307, 97.040979)"><g><path d="M 12.039062 0 L 12.039062 -44.179688 L 4.453125 -44.179688 L 4.453125 0 Z M 12.039062 0 "/></g></g></g><g fill="#ffffff" fill-opacity="1"><g transform="translate(313.061138, 97.040979)"><g><path d="M 6.960938 11.003906 C 14.109375 11.003906 17.371094 8.90625 21.164062 -0.722656 L 33.738281 -32.230469 L 25.648438 -32.199219 L 18.183594 -12.699219 L 17.339844 -9.40625 L 16.523438 -12.730469 L 8.9375 -32.230469 L 0.941406 -32.230469 L 13.292969 -1.503906 L 12.917969 -0.40625 C 11.570312 3.136719 10.285156 4.734375 6.898438 4.734375 L 1.535156 4.734375 L 1.535156 11.003906 Z M 6.960938 11.003906 "/></g></g></g></svg>