<svg xmlns="http://www.w3.org/2000/svg" xmlns:xlink="http://www.w3.org/1999/xlink" zoomAndPan="magnify" viewBox="0 0 375 149.999998" height="200" preserveAspectRatio="xMidYMid meet" version="1.0"><defs><clipPath id="daa899d44c"><path d="M 138.503906 30 L 198 30 L 198 120.226562 L 138.503906 120.226562 Z M 138.503906 30 " clip-rule="nonzero"/></clipPath><clipPath id="f144675693"><path d="M 138.503906 30 L 198 30 L 198 98 L 138.503906 98 Z M 138.503906 30 " clip-rule="nonzero"/></clipPath><clipPath id="61da709230"><path d="M 218 29.476562 L 236.753906 29.476562 L 236.753906 48 L 218 48 Z M 218 29.476562 " clip-rule="nonzero"/></clipPath><clipPath id="a5fc3ee74e"><path d="M 176 30 L 236.753906 30 L 236.753906 120 L 176 120 Z M 176 30 " clip-rule="nonzero"/></clipPath><clipPath id="f01a852ad8"><path d="M 176 30 L 236.753906 30 L 236.753906 98 L 176 98 Z M 176 30 " clip-rule="nonzero"/></clipPath></defs><g clip-path="url(#daa899d44c)"><path fill="#07c8cf" d="M 161.871094 34.023438 L 193.453125 65.417969 C 194.085938 66.050781 194.65625 66.738281 195.15625 67.480469 C 195.652344 68.226562 196.074219 69.007812 196.417969 69.835938 C 196.765625 70.660156 197.023438 71.511719 197.199219 72.386719 C 197.375 73.265625 197.460938 74.148438 197.460938 75.042969 C 197.460938 75.9375 197.375 76.824219 197.199219 77.699219 C 197.023438 78.574219 196.765625 79.425781 196.417969 80.253906 C 196.074219 81.078125 195.652344 81.863281 195.15625 82.605469 C 194.65625 83.347656 194.085938 84.035156 193.453125 84.667969 L 161.871094 116.0625 C 153.246094 124.640625 138.496094 118.5625 138.503906 106.429688 L 138.503906 43.636719 C 138.496094 31.523438 153.246094 25.449219 161.871094 34.023438 Z M 161.871094 34.023438 " fill-opacity="1" fill-rule="nonzero"/></g><g clip-path="url(#f144675693)"><path fill="#07c8cf" d="M 161.871094 34.023438 C 153.296875 25.496094 138.714844 31.457031 138.507812 43.433594 C 138.507812 43.433594 188.203125 90.179688 180.300781 97.796875 L 193.480469 84.695312 C 194.117188 84.0625 194.683594 83.375 195.183594 82.632812 C 195.683594 81.890625 196.105469 81.105469 196.449219 80.28125 C 196.792969 79.453125 197.050781 78.601562 197.226562 77.726562 C 197.402344 76.851562 197.488281 75.964844 197.488281 75.070312 C 197.488281 74.175781 197.402344 73.292969 197.226562 72.414062 C 197.050781 71.539062 196.792969 70.6875 196.449219 69.863281 C 196.105469 69.035156 195.683594 68.253906 195.183594 67.507812 C 194.683594 66.765625 194.117188 66.078125 193.480469 65.445312 Z M 161.871094 34.023438 " fill-opacity="1" fill-rule="nonzero"/></g><g clip-path="url(#61da709230)"><path fill="#8558a7" d="M 236.753906 38.472656 C 236.753906 39.058594 236.695312 39.636719 236.582031 40.210938 C 236.464844 40.78125 236.296875 41.339844 236.070312 41.878906 C 235.847656 42.417969 235.570312 42.929688 235.246094 43.417969 C 234.917969 43.902344 234.546875 44.351562 234.132812 44.765625 C 233.714844 45.175781 233.265625 45.546875 232.777344 45.871094 C 232.289062 46.195312 231.773438 46.46875 231.230469 46.691406 C 230.6875 46.917969 230.125 47.085938 229.550781 47.199219 C 228.972656 47.3125 228.390625 47.371094 227.804688 47.371094 C 227.21875 47.371094 226.636719 47.3125 226.058594 47.199219 C 225.484375 47.085938 224.921875 46.917969 224.378906 46.691406 C 223.835938 46.46875 223.320312 46.195312 222.832031 45.871094 C 222.34375 45.546875 221.894531 45.175781 221.476562 44.765625 C 221.0625 44.351562 220.691406 43.902344 220.363281 43.417969 C 220.039062 42.929688 219.761719 42.417969 219.539062 41.878906 C 219.3125 41.339844 219.144531 40.78125 219.027344 40.210938 C 218.914062 39.636719 218.855469 39.058594 218.855469 38.472656 C 218.855469 37.890625 218.914062 37.3125 219.027344 36.738281 C 219.144531 36.164062 219.3125 35.609375 219.539062 35.070312 C 219.761719 34.53125 220.039062 34.019531 220.363281 33.53125 C 220.691406 33.046875 221.0625 32.597656 221.476562 32.183594 C 221.894531 31.769531 222.34375 31.402344 222.832031 31.078125 C 223.320312 30.753906 223.835938 30.480469 224.378906 30.253906 C 224.921875 30.03125 225.484375 29.863281 226.058594 29.75 C 226.636719 29.636719 227.21875 29.578125 227.804688 29.578125 C 228.390625 29.578125 228.972656 29.636719 229.550781 29.75 C 230.125 29.863281 230.6875 30.03125 231.230469 30.253906 C 231.773438 30.480469 232.289062 30.753906 232.777344 31.078125 C 233.265625 31.402344 233.714844 31.769531 234.132812 32.183594 C 234.546875 32.597656 234.917969 33.046875 235.246094 33.53125 C 235.570312 34.019531 235.847656 34.53125 236.070312 35.070312 C 236.296875 35.609375 236.464844 36.164062 236.582031 36.738281 C 236.695312 37.3125 236.753906 37.890625 236.753906 38.472656 Z M 236.753906 38.472656 " fill-opacity="1" fill-rule="nonzero"/><path fill="#8558a7" d="M 236.753906 38.472656 C 236.753906 39.058594 236.695312 39.636719 236.582031 40.210938 C 236.464844 40.78125 236.296875 41.339844 236.070312 41.878906 C 235.847656 42.417969 235.570312 42.929688 235.246094 43.417969 C 234.917969 43.902344 234.546875 44.351562 234.132812 44.765625 C 233.714844 45.175781 233.265625 45.546875 232.777344 45.871094 C 232.289062 46.195312 231.773438 46.46875 231.230469 46.691406 C 230.6875 46.917969 230.125 47.085938 229.550781 47.199219 C 228.972656 47.3125 228.390625 47.371094 227.804688 47.371094 C 227.21875 47.371094 226.636719 47.3125 226.058594 47.199219 C 225.484375 47.085938 224.921875 46.917969 224.378906 46.691406 C 223.835938 46.46875 223.320312 46.195312 222.832031 45.871094 C 222.34375 45.546875 221.894531 45.175781 221.476562 44.765625 C 221.0625 44.351562 220.691406 43.902344 220.363281 43.417969 C 220.039062 42.929688 219.761719 42.417969 219.539062 41.878906 C 219.3125 41.339844 219.144531 40.78125 219.027344 40.210938 C 218.914062 39.636719 218.855469 39.058594 218.855469 38.472656 C 218.855469 37.890625 218.914062 37.3125 219.027344 36.738281 C 219.144531 36.164062 219.3125 35.609375 219.539062 35.070312 C 219.761719 34.53125 220.039062 34.019531 220.363281 33.53125 C 220.691406 33.046875 221.0625 32.597656 221.476562 32.183594 C 221.894531 31.769531 222.34375 31.402344 222.832031 31.078125 C 223.320312 30.753906 223.835938 30.480469 224.378906 30.253906 C 224.921875 30.03125 225.484375 29.863281 226.058594 29.75 C 226.636719 29.636719 227.21875 29.578125 227.804688 29.578125 C 228.390625 29.578125 228.972656 29.636719 229.550781 29.75 C 230.125 29.863281 230.6875 30.03125 231.230469 30.253906 C 231.773438 30.480469 232.289062 30.753906 232.777344 31.078125 C 233.265625 31.402344 233.714844 31.769531 234.132812 32.183594 C 234.546875 32.597656 234.917969 33.046875 235.246094 33.53125 C 235.570312 34.019531 235.847656 34.53125 236.070312 35.070312 C 236.296875 35.609375 236.464844 36.164062 236.582031 36.738281 C 236.695312 37.3125 236.753906 37.890625 236.753906 38.472656 Z M 236.753906 38.472656 " fill-opacity="1" fill-rule="nonzero"/></g><g clip-path="url(#a5fc3ee74e)"><path fill="#8558a7" d="M 232.738281 65.496094 L 201.15625 34.097656 C 192.679688 25.664062 170.082031 35.445312 177.816406 43.132812 L 200.527344 65.71875 C 201.164062 66.351562 201.730469 67.039062 202.230469 67.78125 C 202.730469 68.523438 203.152344 69.308594 203.496094 70.132812 C 203.839844 70.957031 204.097656 71.808594 204.273438 72.683594 C 204.449219 73.5625 204.539062 74.445312 204.539062 75.339844 C 204.539062 76.234375 204.449219 77.117188 204.273438 77.996094 C 204.097656 78.871094 203.839844 79.722656 203.496094 80.546875 C 203.152344 81.375 202.730469 82.15625 202.230469 82.898438 C 201.730469 83.644531 201.164062 84.328125 200.527344 84.960938 L 177.832031 107.53125 C 170.910156 114.402344 192.765625 124.542969 201.15625 116.195312 L 232.738281 84.800781 C 233.378906 84.167969 233.949219 83.480469 234.453125 82.734375 C 234.957031 81.988281 235.378906 81.203125 235.726562 80.375 C 236.074219 79.546875 236.335938 78.691406 236.511719 77.8125 C 236.6875 76.933594 236.777344 76.046875 236.777344 75.148438 C 236.777344 74.25 236.6875 73.363281 236.511719 72.484375 C 236.335938 71.601562 236.074219 70.75 235.726562 69.921875 C 235.378906 69.09375 234.957031 68.304688 234.453125 67.5625 C 233.949219 66.816406 233.378906 66.128906 232.738281 65.496094 Z M 232.738281 65.496094 " fill-opacity="1" fill-rule="nonzero"/></g><g clip-path="url(#f01a852ad8)"><path fill="#8558a7" d="M 232.738281 65.496094 L 201.15625 34.097656 C 192.679688 25.664062 170.082031 35.445312 177.816406 43.132812 L 200.527344 65.71875 C 201.621094 66.808594 202.507812 68.046875 203.179688 69.433594 C 203.851562 70.820312 204.269531 72.28125 204.441406 73.8125 C 212.265625 82.945312 218.773438 91.8125 220.128906 97.339844 L 232.757812 84.78125 C 233.398438 84.148438 233.964844 83.457031 234.464844 82.714844 C 234.96875 81.96875 235.390625 81.183594 235.734375 80.355469 C 236.078125 79.527344 236.339844 78.675781 236.515625 77.796875 C 236.691406 76.917969 236.777344 76.027344 236.777344 75.132812 C 236.773438 74.238281 236.6875 73.351562 236.507812 72.472656 C 236.332031 71.59375 236.070312 70.742188 235.722656 69.914062 C 235.378906 69.085938 234.953125 68.300781 234.449219 67.558594 C 233.949219 66.816406 233.378906 66.128906 232.738281 65.496094 Z M 232.738281 65.496094 " fill-opacity="1" fill-rule="nonzero"/></g></svg>